<svg id="Layer_5" enable-background="new 0 0 64 64" height="512" viewBox="0 0 64 64" width="512" xmlns="http://www.w3.org/2000/svg"><g><g><g><path d="m48 30h14v4h-14z" fill="#dfb28b"/></g><g><path d="m2 30h14v4h-14z" fill="#dfb28b"/></g><g><path d="m62 34v28h-14v-28z" fill="#ecc19c"/></g><g><path d="m16 34v28h-14v-28z" fill="#ecc19c"/></g><g><path d="m33 2h-2l-17 14v4h2 4 24 4 2v-4z" fill="#cf9e76"/></g><g><path d="m43.71 16h-23.42l11.71-9.64z" fill="#ecc19c"/></g><g><path d="m44 20v42h-24v-42z" fill="#e6e9ed"/></g><g><path d="m48 34v28h-4v-18-12-12h4v10z" fill="#ccd1d9"/></g><g><path d="m20 44v18h-4v-28-4-10h4v12z" fill="#ccd1d9"/></g><g><path d="m38 54v8h-12v-8c0-3.31 2.69-6 6-6 1.66 0 3.16.67 4.24 1.76 1.09 1.08 1.76 2.58 1.76 4.24z" fill="#aab2bd"/></g><g><path d="m52 54h6v4h-6z" fill="#69d6f4"/></g><g><path d="m52 46h6v4h-6z" fill="#69d6f4"/></g><g><path d="m52 38h6v4h-6z" fill="#69d6f4"/></g><g><path d="m34 36h6v4h-6z" fill="#69d6f4"/></g><g><path d="m34 24h6v4h-6z" fill="#69d6f4"/></g><g><path d="m24 24h6v4h-6z" fill="#69d6f4"/></g><g><path d="m24 36h6v4h-6z" fill="#69d6f4"/></g><g><path d="m6 38h6v4h-6z" fill="#69d6f4"/></g><g><path d="m6 46h6v4h-6z" fill="#69d6f4"/></g><g><path d="m6 54h6v4h-6z" fill="#69d6f4"/></g></g><g><path d="m49 29v-8h2v-5.472l-17.641-14.528h-2.718l-17.641 14.528v5.472h2v8h-14v34h62v-34zm12 2v2h-12v-2zm-14 30h-2v-40h2zm-10 0h-10v-7c0-2.757 2.243-5 5-5s5 2.243 5 5zm-5-14c-3.86 0-7 3.141-7 7v7h-4v-16h22v16h-4v-7c0-3.859-3.14-7-7-7zm11-26v10h-22v-10zm0 22h-22v-10h22zm-28-24v-2h34v2zm8.079-4 8.921-7.346 8.921 7.346zm8.28-12h1.282l14.572 12h-3.147l-12.066-9.937-12.066 9.937h-3.147zm-12.359 18v40h-2v-40zm-4 10v2h-12v-2zm-12 4h12v26h-12zm46 26v-26h12v26z"/><path d="m51 51h8v-6h-8zm2-4h4v2h-4z"/><path d="m51 59h8v-6h-8zm2-4h4v2h-4z"/><path d="m5 51h8v-6h-8zm2-4h4v2h-4z"/><path d="m51 43h8v-6h-8zm2-4h4v2h-4z"/><path d="m5 37v6h8v-6zm6 4h-4v-2h4z"/><path d="m5 59h8v-6h-8zm2-4h4v2h-4z"/><path d="m31 41v-6h-8v6zm-6-4h4v2h-4z"/><path d="m41 35h-8v6h8zm-2 4h-4v-2h4z"/><path d="m31 29v-6h-8v6zm-6-4h4v2h-4z"/><path d="m41 23h-8v6h8zm-2 4h-4v-2h4z"/></g></g></svg>