<?xml version="1.0" encoding="iso-8859-1"?>
<!-- Generator: Adobe Illustrator 19.0.0, SVG Export Plug-In . SVG Version: 6.00 Build 0)  -->
<svg version="1.1" id="Capa_1" xmlns="http://www.w3.org/2000/svg" xmlns:xlink="http://www.w3.org/1999/xlink" x="0px" y="0px"
	 viewBox="0 0 496 496" style="enable-background:new 0 0 496 496;" xml:space="preserve">
<g>
	<path style="fill:#FFA64D;" d="M232,376h-2.216c1.368,2.36,2.216,5.072,2.216,8v64c0,8.84-7.16,16-16,16h16l24-16l24,16l24-16
		l24,16l24-16l24,16l24-16l24,16l32-24v-55.712L232,376z"/>
	<path style="fill:#FFA64D;" d="M328,112h-16V96c0-48.6-39.4-88-88-88h-32c-48.6,0-88,39.4-88,88v16H88c-4.416,0-8,3.584-8,8v16
		c0,4.416,3.584,8,8,8h176h16h48c4.416,0,8-3.584,8-8v-16C336,115.584,332.416,112,328,112z"/>
</g>
<g>
	<path style="fill:#333333;" d="M376,381.328v-45.024c0-17.808-6.936-34.544-19.528-47.152c-10.848-10.848-25.24-17.672-40.512-19.2
		L264,264.76V256h-0.832C292.448,237.576,312,205.064,312,168v-16h16c8.824,0,16-7.176,16-16v-16c0-8.824-7.176-16-16-16h-8v-8
		c0-52.936-43.064-96-96-96h-32c-52.936,0-96,43.064-96,96v8h-8c-8.824,0-16,7.176-16,16v16c0,8.824,7.176,16,16,16h16v16
		c0,37.064,19.552,69.576,48.832,88H152v8.76l-51.952,5.192c-15.28,1.528-29.664,8.352-40.512,19.2
		C46.936,301.76,40,318.496,40,336.304V424c0,13.232,10.768,24,24,24h32v48h216h8h56v-32l-16-10.664V480h-40v-21.336L304,448v32H112
		v-32h48c0,13.232,10.768,24,24,24h32c13.232,0,24-10.768,24-24v-64c0-13.232-10.768-24-24-24h-32c-6.168,0-11.744,2.408-16,6.24
		V298.2c8.944,7.728,21.944,13.8,40,13.8s31.056-6.072,40-13.8v78.392l16,0.592V280.84l40,4v93.824l16,0.592V368h40v12.736
		L376,381.328z M112,96c0-41.408,31.632-75.568,72-79.592V88h16V16h16v72h16V16.408C272.368,20.44,304,54.592,304,96v8H112V96z
		 M120,168v-16h144v-16H88v-16h240v16h-48v16h16v16c0,48.52-39.48,88-88,88S120,216.52,120,168z M112,284.832l40-3.992V384h-40
		V284.832z M70.84,300.472c6.896-6.896,15.672-11.648,25.16-13.704V352H56v-15.696C56,322.776,61.272,310.048,70.84,300.472z
		 M64,432c-4.408,0-8-3.584-8-8v-56h40v32h72c8.824,0,16,7.176,16,16s-7.176,16-16,16H64z M184,376h32c4.408,0,8,3.584,8,8v64
		c0,4.416-3.592,8-8,8h-32c-4.408,0-8-3.584-8-8v-1.136c13.76-3.576,24-15.992,24-30.864s-10.24-27.288-24-30.864V384
		C176,379.584,179.592,376,184,376z M208,296c-30.224,0-38.608-20.92-40-25.176v-6.848c12.32,5.152,25.832,8.024,40,8.024
		s27.68-2.872,40-8.024v6.848C246.632,274.984,238.232,296,208,296z M320,352v-65.064c9.464,2.056,18.264,6.64,25.16,13.528
		c9.568,9.584,14.84,22.312,14.84,35.84V352H320z"/>
	<rect x="152" y="72" style="fill:#333333;" width="16" height="16"/>
	<rect x="120" y="72" style="fill:#333333;" width="16" height="16"/>
	<rect x="280" y="72" style="fill:#333333;" width="16" height="16"/>
	<rect x="248" y="72" style="fill:#333333;" width="16" height="16"/>
</g>
<g>
</g>
<g>
</g>
<g>
</g>
<g>
</g>
<g>
</g>
<g>
</g>
<g>
</g>
<g>
</g>
<g>
</g>
<g>
</g>
<g>
</g>
<g>
</g>
<g>
</g>
<g>
</g>
<g>
</g>
</svg>
