<svg height="512pt" viewBox="0 -38 512 512" width="512pt" xmlns="http://www.w3.org/2000/svg"><g fill-rule="evenodd"><path d="m235.808594 393.929688v-69.878907h-72.804688c-5.5 0-10.003906 4.507813-10.003906 10.011719v59.867188l35.679688 9.019531zm0 0" fill="#b3b3b3"/><path d="m332.445312 71.707031-4.136718-39.761719-18.304688-8.988281-16.214844 8.988281-4.136718 39.761719 20.945312 8.988281zm0 0" fill="#808080"/><path d="m338.3125 21.9375v-4.398438c0-5.5-4.503906-9.980468-10.003906-9.980468h-34.519532c-5.496093 0-10.003906 4.480468-10.003906 9.980468v4.398438c0 5.5 4.507813 10.007812 10.003906 10.007812h34.519532c5.5 0 10.003906-4.507812 10.003906-10.007812zm0 0" fill="#b3b3b3"/><path d="m173.007812 393.929688v-59.867188c0-5.503906 4.503907-10.011719 10.003907-10.011719h-20.007813c-5.5 0-10.007812 4.507813-10.007812 10.011719v59.867188zm0 0" fill="#999"/><path d="m372.71875 138.097656v-56.378906c0-5.503906-4.480469-10.011719-9.976562-10.011719h-96.753907c-5.496093 0-10.003906 4.507813-10.003906 10.011719v56.378906l54.980469 26.996094zm0 0" fill="#b3b3b3"/><path d="m275.765625 138.097656v-56.378906c0-5.503906 4.507813-10.011719 10.003906-10.011719h-19.777343c-5.5 0-10.007813 4.507813-10.007813 10.011719v56.378906zm0 0" fill="#999"/><path d="m473.355469 393.929688v-246.84375c0-4.933594-4.054688-8.988282-8.984375-8.988282h-219.578125c-4.960938 0-8.984375 4.054688-8.984375 8.988282v246.84375l120.53125 18.007812zm0 0" fill="#e8e8e8"/><path d="m260.265625 292.175781v-145.089843c0-4.933594 4.054687-8.988282 9.011719-8.988282h-24.484375c-4.960938 0-8.984375 4.054688-8.984375 8.988282v246.84375h24.457031zm0 0" fill="#ccc"/><path d="m113.804688 393.929688v-303.050782c0-9.304687-7.625-16.933594-16.917969-16.933594-9.324219 0-16.949219 7.628907-16.949219 16.933594v303.050782l16.933594 13.34375zm0 0" fill="#ffcc73"/><path d="m96.886719 393.929688v-303.050782c0-6.238281 3.398437-11.714844 8.441406-14.664062-2.492187-1.445313-5.382813-2.269532-8.441406-2.269532-9.324219 0-16.949219 7.628907-16.949219 16.933594v303.050782zm0 0" fill="#f59556"/><path d="m282.085938 191.867188c-4.25 0-7.734376 3.488281-7.734376 7.742187v15.511719c0 4.28125 3.484376 7.773437 7.734376 7.773437h52.347656c4.25 0 7.734375-3.492187 7.734375-7.773437v-15.511719c0-4.253906-3.484375-7.742187-7.734375-7.742187zm0 0" fill="#55b8e6"/><path d="m287.414062 215.121094v-15.511719c0-4.253906 3.484376-7.742187 7.765626-7.742187h-13.09375c-4.25 0-7.734376 3.488281-7.734376 7.742187v15.511719c0 4.28125 3.484376 7.773437 7.734376 7.773437h13.09375c-4.28125 0-7.765626-3.492187-7.765626-7.773437zm0 0" fill="#6a96d4"/><path d="m379.207031 191.753906c-4.25 0-7.734375 3.488282-7.734375 7.769532v15.511718c0 4.257813 3.484375 7.746094 7.734375 7.746094h52.347657c4.277343 0 7.761718-3.488281 7.761718-7.746094v-15.511718c0-4.28125-3.484375-7.769532-7.761718-7.769532zm0 0" fill="#55b8e6"/><path d="m384.566406 215.035156v-15.511718c0-4.28125 3.484375-7.769532 7.734375-7.769532h-13.09375c-4.25 0-7.734375 3.488282-7.734375 7.769532v15.511718c0 4.253906 3.484375 7.742188 7.734375 7.742188h13.09375c-4.25 0-7.734375-3.488282-7.734375-7.742188zm0 0" fill="#6a96d4"/><path d="m334.433594 280.859375c4.25 0 7.734375-3.488281 7.734375-7.769531v-15.511719c0-4.257813-3.484375-7.742187-7.734375-7.742187h-52.347656c-4.25 0-7.734376 3.484374-7.734376 7.742187v15.511719c0 4.28125 3.484376 7.769531 7.734376 7.769531zm0 0" fill="#55b8e6"/><path d="m287.414062 273.089844v-15.515625c0-4.253907 3.484376-7.742188 7.765626-7.742188h-13.09375c-4.25 0-7.734376 3.488281-7.734376 7.742188v15.515625c0 4.28125 3.484376 7.769531 7.734376 7.769531h13.09375c-4.28125 0-7.765626-3.488281-7.765626-7.769531zm0 0" fill="#6a96d4"/><path d="m431.554688 280.746094c4.277343 0 7.761718-3.488282 7.761718-7.742188v-15.511718c0-4.28125-3.484375-7.769532-7.761718-7.769532h-52.347657c-4.25 0-7.734375 3.488282-7.734375 7.769532v15.511718c0 4.253906 3.484375 7.742188 7.734375 7.742188zm0 0" fill="#55b8e6"/><path d="m384.566406 273.003906v-15.511718c0-4.285157 3.484375-7.773438 7.734375-7.773438h-13.09375c-4.25 0-7.734375 3.488281-7.734375 7.773438v15.511718c0 4.253906 3.484375 7.742188 7.734375 7.742188h13.09375c-4.25 0-7.734375-3.488282-7.734375-7.742188zm0 0" fill="#6a96d4"/><path d="m383.628906 393.929688v-56.265626c0-4.59375-3.769531-8.367187-8.359375-8.367187h-39.675781c-4.589844 0-8.359375 3.773437-8.359375 8.367187v56.265626zm0 0" fill="#fa6969"/><path d="m113.804688 393.929688h-96.273438c-5.496094 0-9.976562 4.511718-9.976562 10.011718v14.492188c0 5.5 4.480468 10.007812 9.976562 10.007812h476.910156c5.496094 0 10.003906-4.507812 10.003906-10.007812v-14.492188c0-5.5-4.507812-10.011718-10.003906-10.011718zm0 0" fill="#808080"/><path d="m344.519531 393.929688v-56.265626c0-4.59375 3.769531-8.367187 8.359375-8.367187h-17.285156c-4.589844 0-8.359375 3.773437-8.359375 8.367187v56.265626zm0 0" fill="#c92858"/><path d="m43.40625 418.433594v-14.492188c0-5.5 4.480469-10.011718 9.976562-10.011718h-35.851562c-5.496094 0-9.976562 4.511718-9.976562 10.011718v14.492188c0 5.5 4.480468 10.007812 9.976562 10.007812h35.851562c-5.496093 0-9.976562-4.507812-9.976562-10.007812zm0 0" fill="#525252"/></g><path d="m494.441406 386.371094h-13.527344l.023438-114.78125c.003906-4.175782-3.378906-7.558594-7.554688-7.5625-4.171874 0-7.558593 3.382812-7.558593 7.558594l-.023438 114.785156h-74.613281v-48.707032c0-8.78125-7.140625-15.921874-15.917969-15.921874h-39.675781c-8.777344 0-15.917969 7.140624-15.917969 15.921874v48.707032h-76.3125v-239.285156c0-.777344.65625-1.433594 1.429688-1.433594h219.578125c.761718 0 1.425781.671875 1.425781 1.433594v89.875c0 4.171874 3.382813 7.554687 7.558594 7.554687 4.171875 0 7.554687-3.382813 7.554687-7.554687v-89.875c0-9.121094-7.417968-16.546876-16.539062-16.546876h-27.699219v-29.621093c0-9.6875-7.875-17.566407-17.558594-17.566407h-38.835937v-1.632812c0-9.6875-7.867188-17.570312-17.535156-17.570312h-23.480469l-2.777344-26.675782c5.574219-2.949218 9.386719-8.800781 9.386719-15.535156v-4.398438c0-9.671874-7.878906-17.539062-17.558594-17.539062h-34.519531c-9.683594 0-17.5625 7.867188-17.5625 17.539062v4.398438c0 6.734375 3.816406 12.585938 9.390625 15.535156l-2.777344 26.675782h-16.855469c-9.683593 0-17.558593 7.882812-17.558593 17.570312v48.820312h-3.640626c-9.117187 0-16.539062 7.425782-16.539062 16.546876v137.53125h-38.835938c-9.683593 0-17.558593 7.882812-17.558593 17.570312v14.308594h-8.851563c-9.6875 0-17.5625 7.878906-17.5625 17.566406v52.308594h-24.082031v-112.246094l57.296875-36.824219v8.25c0 4.175781 3.382812 7.558594 7.554688 7.558594 4.175781 0 7.558593-3.382813 7.558593-7.558594v-22.089843c0-4.175782-3.382812-7.558594-7.558593-7.558594h-64.851563v-38.65625l55.539063-35.714844v8.304688c0 4.175781 3.382812 7.558593 7.558593 7.558593 4.171875 0 7.554688-3.382812 7.554688-7.558593v-22.148438c0-4.171875-3.382813-7.554688-7.554688-7.554688h-63.097656v-29.253906c0-13.503906-10.976563-24.488281-24.472656-24.488281-13.515625 0-24.507813 10.984375-24.507813 24.488281v29.253906h-63.09375c-4.175781 0-7.558594 3.382813-7.558594 7.554688v22.148438c0 4.175781 3.382813 7.558593 7.558594 7.558593 4.175782 0 7.558594-3.382812 7.558594-7.558593v-8.308594l32.167969 20.675781 23.367187 15.039063v38.660156h-61.335937c-4.175781 0-7.558594 3.382812-7.558594 7.558594v22.175781c0 4.171875 3.382813 7.558593 7.558594 7.558593s7.558593-3.382812 7.558593-7.558593v-8.335938l53.777344 34.582031v32.089844c0 4.171875 3.382813 7.554688 7.558594 7.554688 4.171875 0 7.558594-3.382813 7.558594-7.554688v-213.09375c0-5.167968 4.210937-9.375 9.390625-9.375 5.160156 0 9.359375 4.203125 9.359375 9.375v295.492188h-18.742188l.046875-47.734375c.003907-4.175781-3.375-7.5625-7.550781-7.566407-.003906 0-.003906 0-.007812 0-4.167969 0-7.550782 3.378907-7.554688 7.550782l-.050781 47.753906h-54.855469c-9.667969-.003906-17.53125 7.878906-17.53125 17.566406v14.492188c0 9.683594 7.863281 17.566406 17.53125 17.566406h476.910156c9.679688 0 17.558594-7.882812 17.558594-17.566406v-14.492188c0-9.6875-7.878906-17.570312-17.558594-17.570312zm-75.332031-287.90625c1.328125 0 2.449219 1.121094 2.449219 2.449218v29.625h-41.285156v-32.078124h38.835937zm-127.765625-80.925782c0-1.316406 1.121094-2.425781 2.445312-2.425781h34.519532c1.328125 0 2.449218 1.113281 2.449218 2.425781v4.398438c0 1.328125-1.121093 2.453125-2.449218 2.453125h-34.5c-.003906 0-.011719 0-.019532 0-1.324218 0-2.445312-1.125-2.445312-2.453125zm9.257812 21.964844h20.894532l2.566406 24.644532h-26.023438zm-37.058593 42.214844c0-1.332031 1.121093-2.453125 2.445312-2.453125h23.664063.007812.011719 42.757813.007812.011719 30.292969c1.3125 0 2.421874 1.121094 2.421874 2.453125v48.820312h-101.621093zm-228.523438 53.527344h37.359375v24.027344zm1.742188 95.769531h35.617187v22.898437zm123.714843 0-39.117187 25.144531v-25.144531zm-1.742187-95.769531-37.375 24.03125v-24.03125zm176.054687 202.417968c0-.425781.382813-.808593.804688-.808593h39.675781c.421875 0 .804688.382812.804688.808593v48.707032h-41.285157zm-147.820312-35.476562c0-1.332031 1.121094-2.457031 2.445312-2.457031h38.839844v16.761719h-41.285156zm-26.414062 31.875c0-1.332031 1.121093-2.453125 2.449218-2.453125h65.25v54.765625h-67.699218zm336.332031 84.371094c0 1.328125-1.121094 2.453125-2.445313 2.453125h-476.910156c-1.308594 0-2.417969-1.125-2.417969-2.453125v-14.492188c0-1.332031 1.109375-2.453125 2.417969-2.453125h62.398438.007812 414.503906c1.324219 0 2.445313 1.121094 2.445313 2.453125zm0 0"/><path d="m349.726562 199.609375c0-8.4375-6.863281-15.300781-15.292968-15.300781h-52.347656c-8.433594 0-15.292969 6.863281-15.292969 15.300781v15.511719c0 8.453125 6.859375 15.328125 15.292969 15.328125h52.347656c8.429687 0 15.292968-6.875 15.292968-15.328125zm-15.117187 15.511719c0 .125-.117187.214844-.179687.214844h-52.34375c-.0625 0-.179688-.089844-.179688-.214844v-15.511719c0-.085937.109375-.1875.179688-.1875h52.34375c.070312 0 .179687.101563.179687.1875zm0 0"/><path d="m446.875 199.523438c0-8.453126-6.875-15.328126-15.320312-15.328126h-52.347657c-8.433593 0-15.292969 6.875-15.292969 15.328126v15.511718c0 8.4375 6.859376 15.300782 15.292969 15.300782h52.347657c8.445312 0 15.320312-6.863282 15.320312-15.300782zm-15.113281 15.511718c0 .074219-.09375.1875-.207031.1875h-52.347657c-.070312 0-.179687-.101562-.179687-.1875v-15.511718c0-.125.117187-.214844.179687-.214844h52.347657c.101562 0 .207031.105468.207031.214844zm0 0"/><path d="m334.433594 242.277344h-52.347656c-8.433594 0-15.292969 6.863281-15.292969 15.296875v15.515625c0 8.449218 6.859375 15.324218 15.292969 15.324218h52.347656c8.429687 0 15.292968-6.875 15.292968-15.324218v-15.515625c0-8.433594-6.863281-15.296875-15.292968-15.296875zm.175781 30.8125c0 .121094-.117187.210937-.179687.210937h-52.34375c-.0625 0-.179688-.089843-.179688-.210937v-15.515625c0-.085938.109375-.183594.179688-.183594h52.34375c.070312 0 .179687.097656.179687.183594zm0 0"/><path d="m431.554688 242.164062h-52.347657c-8.433593 0-15.292969 6.875-15.292969 15.328126v15.511718c0 8.4375 6.859376 15.300782 15.292969 15.300782h52.347657c8.445312 0 15.320312-6.863282 15.320312-15.300782v-15.511718c0-8.453126-6.875-15.328126-15.320312-15.328126zm.207031 30.839844c0 .070313-.097657.183594-.207031.183594h-52.347657c-.070312 0-.179687-.097656-.179687-.183594v-15.511718c0-.125.117187-.214844.179687-.214844h52.347657c.105468 0 .207031.105468.207031.214844zm0 0"/></svg>