<svg id="Capa_1" enable-background="new 0 0 512 512" height="512" viewBox="0 0 512 512" width="512" xmlns="http://www.w3.org/2000/svg"><g><path d="m438.86 28.765v249.04h-365.72v-249.04h30v40.88c50.02-17.04 101.44-25.56 152.86-25.6 51.41-.04 102.82 8.39 152.86 25.26v-40.54z" fill="#ffe987"/><path d="m438.86 28.765v249.04h-182.86v-233.76c51.41-.04 102.82 8.39 152.86 25.26v-40.54z" fill="#fecb6e"/><path d="m123.816 410.092-36.572 73.143h-42.041v-87.143z" fill="#3b6291"/><path d="m475.429 396.092v87.143h-42.042l-36.571-73.143z" fill="#344d74"/><path d="m345.516 204.663h-52.931c-20.206 0-36.586 16.38-36.586 36.586 0-20.206-16.38-36.586-36.586-36.586h-52.931c-20.198 0-36.571 16.374-36.571 36.571v36.571h126.089 126.088v-36.571c0-20.197-16.374-36.571-36.572-36.571z" fill="#f0f7ff"/><path d="m256 277.806v-36.557c0-20.206 16.38-36.586 36.586-36.586h52.931c20.198 0 36.571 16.374 36.571 36.571v36.571h-126.088z" fill="#d7e9fc"/><path d="m475.43 300.375v50.57h-438.86v-50.57c0-20.2 16.37-36.57 36.57-36.57h365.72c20.2 0 36.57 16.37 36.57 36.57z" fill="#fecb6e"/><path d="m475.43 300.375v50.57h-219.43v-87.14h182.86c20.2 0 36.57 16.37 36.57 36.57z" fill="#feb36d"/><path d="m512 371.375v38.72h-512v-38.72c0-19.01 15.41-34.43 34.43-34.43h443.14c19.02 0 34.43 15.42 34.43 34.43z" fill="#00b3ff"/><path d="m512 371.375v38.72h-256v-73.15h221.57c19.02 0 34.43 15.42 34.43 34.43z" fill="#3a80e8"/></g></svg>