<svg id="Capa_1" enable-background="new 0 0 497.471 497.471" height="512" viewBox="0 0 497.471 497.471" width="512" xmlns="http://www.w3.org/2000/svg"><path d="m440.255 310.62-172.07-232.11h-33.21l-178.76 218.97v167.76l61.142 24.11h297.314l26.584-24.11z" fill="#f9f7f8"/><path d="m440.255 310.62-150.68-203.256-59.893-22.371-140.416 172v24.755h-20.208l-12.843 15.732v159.001h104.241l-39.393-15.534v-138.574c0-10.733 3.526-21.168 10.037-29.701l51.779-67.866 23.878-30.711c.791-1.018 2.418-.622 2.642.648.736 4.173 2.336 11.099 5.226 14.287 4.312 4.758 10.467 7.487 16.886 7.488h.003c6.138 0 12.107-2.552 16.377-7.002l25.355-26.429c2.753-2.869 7.416-2.609 9.832.548l31.216 40.789 112.906 147.979c2.62 3.434 6.692 5.449 11.012 5.449h2.348z" fill="#efedef"/><g><path d="m476.976 331.914-123.241-161.524-57.382-72.101h-38.759v-33.999h-25.869l-88.42 106.66-122.81 160.964c-1.855 2.432-.121 5.936 2.938 5.936h32.783l110.82-145.25 72.96-93.84h18.62l71.58 93.53 111.06 145.56h32.783c3.058 0 4.793-3.504 2.937-5.936z" fill="#ee6161"/></g><path d="m441.025 429h-384.81v36.24l75.937 16.115h297.179l11.924-16.115z" fill="#efedef"/><path d="m288.95 484.239h-81.43v-78.076c0-22.486 18.229-40.715 40.715-40.715 22.486 0 40.715 18.229 40.715 40.715z" fill="#fccd7f"/><path d="m248.235 416.407c0-18.363 12.159-33.882 28.864-38.957-7.374-7.412-17.582-12.003-28.864-12.003-22.486 0-40.715 18.229-40.715 40.715v78.076h40.715z" fill="#fbc56d"/><path d="m121.115 429h-64.9v36.24l75.937 16.115h64.9l-75.937-16.115z" fill="#e5e1e5"/><path d="m451.591 465.239h-405.711c-4.983 0-9.023 4.04-9.023 9.023v17.755c0 3.012 2.442 5.454 5.454 5.454h412.848c3.012 0 5.454-2.442 5.454-5.454v-17.755c0-4.983-4.039-9.023-9.022-9.023z" fill="#c9bfc8"/><path d="m101.757 492.016v-17.755c0-4.983 4.04-9.023 9.023-9.023h-64.9c-4.983 0-9.023 4.04-9.023 9.023v17.755c0 3.012 2.442 5.454 5.454 5.454h64.9c-3.012.001-5.454-2.441-5.454-5.454z" fill="#aa9ea9"/><path d="m317.972 293.936c0-9.582 7.768-17.349 17.349-17.349 9.582 0 17.349 7.768 17.349 17.349v50.719h-34.699" fill="#6bd9e7"/><g><g><path d="m359.34 352.155h-47.143c-4.142 0-7.5-3.358-7.5-7.5s3.358-7.5 7.5-7.5h47.143c4.142 0 7.5 3.358 7.5 7.5s-3.358 7.5-7.5 7.5z" fill="#efedef"/></g></g><path d="m143.799 344.655h34.699v-50.719c0-9.582-7.768-17.349-17.349-17.349-9.582 0-17.349 7.768-17.349 17.349v50.719z" fill="#6bd9e7"/><g><g><path d="m184.273 352.155h-47.143c-4.142 0-7.5-3.358-7.5-7.5s3.358-7.5 7.5-7.5h47.143c4.142 0 7.5 3.358 7.5 7.5s-3.357 7.5-7.5 7.5z" fill="#efedef"/></g></g><g id="XMLID_155_"><g><path d="m258.286 235.904h-36.631l-6.63 5.447v27.12c0 4.09 3.31 7.39 7.39 7.39h26.27l10.778-14.653z" fill="#6bd9e7"/><path d="m248.685 206.83h-26.27c-4.08 0-7.39 3.31-7.39 7.4v27.12h33.66l6.953-7.653v-15.153z" fill="#a6e7f0"/></g><path d="m277.999 231.637h-23.685l-5.629 9.713v34.51h25.37c4.08 0 7.39-3.3 7.39-7.39v-27.12z" fill="#a6e7f0"/></g><path d="m281.445 214.23v27.12h-32.76v-34.52h25.37c4.08 0 7.39 3.31 7.39 7.4z" fill="#dcf5f8"/><path d="m296.353 98.289h-38.758v-33.999h-25.87l-35.781 43.163h19.228l-2.615 26.598 27.438-35.291h18.62l33.877 44.265 21.57-22.485z" fill="#e94444"/><path d="m311.186 87.453h-32.672c-2.638 0-4.458-2.644-3.516-5.108l28.818-75.395c1.281-3.353-1.194-6.95-4.784-6.95h-67.415l-13.489 10.119-25.447 70.508s29.158-3.181 30.2-2.117c1.043 1.064 25.506 4.768 25.506 4.768l-6.403 75.015 12.56-4.603 58.765-61.255c1.796-1.872.47-4.982-2.123-4.982z" fill="#fedf30"/><path d="m245.129 71.658h-32.021c-1.988 0-3.404-1.93-2.808-3.826l21.318-67.832h-16.653c-2.237 0-4.215 1.452-4.885 3.586l-25.155 80.041c-.596 1.897.82 3.826 2.808 3.826h49.503l-8.462 86.06c-.254 2.579 2.892 4.026 4.686 2.157l21.086-21.98 6.355-64.633c.916-9.321-6.407-17.399-15.772-17.399z" fill="#fed402"/><g><path d="m420.376 160.722c-1.383 0-2.782-.269-4.129-.818-3.946-1.61-6.523-5.256-6.725-9.513l-.474-9.975-16.715 15.527c-3.036 2.819-7.78 2.644-10.6-.391-2.819-3.035-2.644-7.78.391-10.6l23.294-21.638c3.122-2.901 7.514-3.704 11.461-2.093 3.947 1.61 6.524 5.255 6.727 9.514l.474 9.975 22.717-21.103c3.036-2.819 7.78-2.644 10.6.391 2.819 3.035 2.644 7.78-.391 10.6l-29.296 27.214c-2.058 1.91-4.666 2.91-7.334 2.91z" fill="#fedf30"/></g><g><path d="m78 160.722c-2.668 0-5.275-1-7.333-2.911l-29.296-27.214c-3.035-2.819-3.209-7.565-.391-10.6 2.819-3.034 7.564-3.209 10.6-.391l22.717 21.103.474-9.975c.202-4.258 2.78-7.904 6.727-9.514 3.948-1.612 8.339-.809 11.461 2.094l23.293 21.637c3.035 2.819 3.209 7.565.391 10.6-2.818 3.034-7.563 3.21-10.6.391l-16.715-15.527-.474 9.975c-.202 4.258-2.779 7.903-6.726 9.513-1.346.551-2.745.819-4.128.819z" fill="#fedf30"/></g></svg>