<svg id="Capa_1" enable-background="new 0 0 512 512" height="512" viewBox="0 0 512 512" width="512" xmlns="http://www.w3.org/2000/svg"><g><path d="m1 90.333h150v60.333h-150z"/><path d="m331 150.667v-45.333c0-8.284-6.716-15-15-15h-135v60.333z"/><path d="m1 271h150v60.333h-150z"/><g><path d="m511 331.333v-45.333c0-8.284-6.716-15-15-15h-135v60.333z"/><path d="m181 271h150v60.333h-150z"/></g><g><path d="m271 361.333h150v60.333h-150z"/><path d="m451 361.333h60v60.333h-60z"/><path d="m1 361.333h60v60.333h-60z"/><path d="m91 361.333h150v60.333h-150z"/></g><g><path d="m421 241v-45.333c0-8.284-6.716-15-15-15h-135v60.333z"/><path d="m1 180.667h60v60.333h-60z"/><path d="m91 180.667h150v60.333h-150z"/></g><g><path d="m61 0h-45c-8.284 0-15 6.716-15 15v45.333h60z"/><path d="m91 0v60.333h150v-45.333c0-8.284-6.716-15-15-15z"/></g><path d="m1 451.667v45.333c0 8.284 6.716 15 15 15h135v-60.333z"/><path d="m181 451.667h150v60.333h-150z"/><path d="m496 512c8.284 0 15-6.716 15-15v-45.333h-150v60.333z"/></g></svg>