<svg height="512" viewBox="0 0 64 64" width="512" xmlns="http://www.w3.org/2000/svg"><g id="Pipe-Plumbering-Home_Repair-Water-Blocked" data-name="Pipe-Plumbering-Home Repair-Water-Blocked"><g fill="#bddbff"><rect height="14" rx="2" width="6" x="45" y="19"/><path d="m45 21v10h-2a6 6 0 0 0 -6 6h-10a16.021 16.021 0 0 1 16-16z"/><rect height="6" rx="2" width="14" x="25" y="37"/><path d="m36.42 47.05c-2.78 0-2.78 3.9-5.57 3.9-2.3 0-2.7-2.65-4.33-3.58a6.022 6.022 0 0 1 -5.52 3.63 5.07 5.07 0 0 1 -.68-.04 5.993 5.993 0 0 1 -5.24-5.03 2.562 2.562 0 0 0 -1.94-.88c-2.79 0-2.79 3.9-5.57 3.9a2.857 2.857 0 0 1 -2.35-1.36h-.01a16 16 0 0 0 31.65-.51 3.043 3.043 0 0 0 -.44-.03zm-21.42 11.95a2 2 0 0 1 -2-2 2 2 0 0 1 3.76-.95 2.028 2.028 0 0 1 .24.95 2.006 2.006 0 0 1 -2 2zm5-2a3.006 3.006 0 0 1 -3-3 3 3 0 0 1 3-3c.1 0 .21.01.31.02a3 3 0 0 1 -.31 5.98zm3 2a1 1 0 1 1 1-1 1 1 0 0 1 -1 1z"/><rect height="6" rx="2" width="14" x="3" y="3"/></g><path d="m61 20h-9.18a3.01 3.01 0 0 0 -2.82-2h-2a3.01 3.01 0 0 0 -2.82 2h-1.18a17.011 17.011 0 0 0 -16.96 16.17 2.993 2.993 0 0 0 -2.04 2.83v2a3.01 3.01 0 0 0 2 2.82v1.18a5 5 0 0 1 -10 0v-35.18a3.01 3.01 0 0 0 2-2.82v-2a3.009 3.009 0 0 0 -3-3h-10a3.009 3.009 0 0 0 -3 3v2a3.01 3.01 0 0 0 2 2.82v35.18a17 17 0 0 0 34 0v-1.18a3.01 3.01 0 0 0 2-2.82v-2a3 3 0 0 0 -1.92-2.79 4.991 4.991 0 0 1 4.92-4.21h1.18a3.01 3.01 0 0 0 2.82 2h2a3.01 3.01 0 0 0 2.82-2h9.18a1 1 0 0 0 1-1v-10a1 1 0 0 0 -1-1zm-41 32a2 2 0 1 1 -2 2 2.006 2.006 0 0 1 2-2zm-16-45v-2a1 1 0 0 1 1-1h10a1 1 0 0 1 1 1v2a1 1 0 0 1 -1 1h-10a1 1 0 0 1 -1-1zm2.17 40.17a15.5 15.5 0 0 1 -.17-2.17v-35h8v34.16a3.5 3.5 0 0 0 -.86-.11c-1.91 0-2.85 1.32-3.6 2.37-.7.98-1.14 1.53-1.97 1.53a1.746 1.746 0 0 1 -1.4-.78zm8.83 10.83a1 1 0 1 1 1-1 1 1 0 0 1 -1 1zm0-4a3 3 0 0 0 -3 2.97 14.944 14.944 0 0 1 -5.17-7.1 3.425 3.425 0 0 0 .74.08c1.9 0 2.84-1.31 3.59-2.37.7-.98 1.14-1.53 1.98-1.53a1.48 1.48 0 0 1 1.01.38 7.011 7.011 0 0 0 3.25 4.56 3.956 3.956 0 0 0 -1.4 3.01c0 .07.02.13.02.19a2.887 2.887 0 0 0 -1.02-.19zm6 6a15.035 15.035 0 0 1 -4.21-.61 3 3 0 0 0 1.17-1.97 3.943 3.943 0 0 0 2.04.58 3.737 3.737 0 0 0 1.01-.15c0 .05-.01.1-.01.15a1.984 1.984 0 0 0 1.49 1.92 14.716 14.716 0 0 1 -1.49.08zm3.08-.32a1.994 1.994 0 0 0 -.66-3.63 3.917 3.917 0 0 0 -.21-4.41 7.117 7.117 0 0 0 3.57-2.69c.15.2.31.41.47.63.75 1.06 1.69 2.37 3.6 2.37s2.85-1.32 3.6-2.37a4.825 4.825 0 0 1 1.17-1.28 15.022 15.022 0 0 1 -11.54 11.38zm11.92-14.68c0 .37-.03.73-.06 1.09a4.59 4.59 0 0 0 -3.11 2.33c-.7.98-1.14 1.53-1.98 1.53s-1.27-.55-1.97-1.53a8.512 8.512 0 0 0 -1.18-1.4 7.1 7.1 0 0 0 .3-2.02v-1h8zm2-4a1 1 0 0 1 -1 1h-10a1 1 0 0 1 -1-1v-2a1 1 0 0 1 1-1h10a1 1 0 0 1 1 1zm6-11h-1a7 7 0 0 0 -6.92 6h-8.03a15.015 15.015 0 0 1 14.95-14h1zm6 1a1 1 0 0 1 -1 1h-2a1 1 0 0 1 -1-1v-10a1 1 0 0 1 1-1h2a1 1 0 0 1 1 1zm10-1h-8v-8h8z" fill="#3d9ae2"/><path d="m26 54h2v2h-2z" fill="#3d9ae2"/><path d="m10 51h2v2h-2z" fill="#3d9ae2"/></g></svg>